REM DIRINDEX 1\3,1\2\4,1\2\5,1\2\6
REM DIRNAME cjc137,folder01,folder02,folder03,folder04,folder05
TITLE ""
FILE "061.mp3" MP3
  TRACK 01 AUDIO
    TITLE "4:cjc137_2486"
    INDEX 01 00:00:00
  TRACK 02 AUDIO
    TITLE "0:"
    INDEX 01 00:00:70
  TRACK 03 AUDIO
    TITLE "6:cjc137_2487"
    INDEX 01 00:01:03
  TRACK 04 AUDIO
    TITLE "0:"
    INDEX 01 00:02:00
  TRACK 05 AUDIO
    TITLE "5:cjc137_2488"
    INDEX 01 00:02:06
  TRACK 06 AUDIO
    TITLE "0:"
    INDEX 01 00:03:00
  TRACK 07 AUDIO
    TITLE "4:cjc137_2489"
    INDEX 01 00:04:07
  TRACK 08 AUDIO
    TITLE "0:"
    INDEX 01 00:05:20
  TRACK 09 AUDIO
    TITLE "6:cjc137_2490"
    INDEX 01 00:05:28
  TRACK 10 AUDIO
    TITLE "0:"
    INDEX 01 00:06:51
  TRACK 11 AUDIO
    TITLE "5:cjc137_2491"
    INDEX 01 00:06:57
  TRACK 12 AUDIO
    TITLE "0:"
    INDEX 01 00:07:68
  TRACK 13 AUDIO
    TITLE "4:cjc137_2492"
    INDEX 01 00:09:02
  TRACK 14 AUDIO
    TITLE "0:"
    INDEX 01 00:10:12
  TRACK 15 AUDIO
    TITLE "6:cjc137_2493"
    INDEX 01 00:10:19
  TRACK 16 AUDIO
    TITLE "0:"
    INDEX 01 00:11:31
  TRACK 17 AUDIO
    TITLE "5:cjc137_2494"
    INDEX 01 00:11:37
  TRACK 18 AUDIO
    TITLE "0:"
    INDEX 01 00:12:50
  TRACK 19 AUDIO
    TITLE "4:cjc137_2495"
    INDEX 01 00:13:57
  TRACK 20 AUDIO
    TITLE "0:"
    INDEX 01 00:14:68
  TRACK 21 AUDIO
    TITLE "6:cjc137_2496"
    INDEX 01 00:14:74
  TRACK 22 AUDIO
    TITLE "0:"
    INDEX 01 00:16:14
  TRACK 23 AUDIO
    TITLE "5:cjc137_2497"
    INDEX 01 00:16:20
  TRACK 24 AUDIO
    TITLE "0:"
    INDEX 01 00:17:31
  TRACK 25 AUDIO
    TITLE "4:cjc137_2498"
    INDEX 01 00:18:37
  TRACK 26 AUDIO
    TITLE "0:"
    INDEX 01 00:19:42
  TRACK 27 AUDIO
    TITLE "6:cjc137_2499"
    INDEX 01 00:19:48
  TRACK 28 AUDIO
    TITLE "0:"
    INDEX 01 00:21:00
  TRACK 29 AUDIO
    TITLE "5:cjc137_2500"
    INDEX 01 00:21:04
  TRACK 30 AUDIO
    TITLE "0:"
    INDEX 01 00:22:09
  TRACK 31 AUDIO
    TITLE "4:cjc137_2501"
    INDEX 01 00:23:16
  TRACK 32 AUDIO
    TITLE "0:"
    INDEX 01 00:24:31
  TRACK 33 AUDIO
    TITLE "6:cjc137_2502"
    INDEX 01 00:24:39
  TRACK 34 AUDIO
    TITLE "0:"
    INDEX 01 00:25:45
  TRACK 35 AUDIO
    TITLE "5:cjc137_2503"
    INDEX 01 00:25:50
  TRACK 36 AUDIO
    TITLE "0:"
    INDEX 01 00:26:67
  TRACK 37 AUDIO
    TITLE "4:cjc137_2504"
    INDEX 01 00:27:73
  TRACK 38 AUDIO
    TITLE "0:"
    INDEX 01 00:29:07
  TRACK 39 AUDIO
    TITLE "6:cjc137_2505"
    INDEX 01 00:29:15
  TRACK 40 AUDIO
    TITLE "0:"
    INDEX 01 00:30:08
  TRACK 41 AUDIO
    TITLE "5:cjc137_2506"
    INDEX 01 00:30:16
  TRACK 42 AUDIO
    TITLE "0:"
    INDEX 01 00:31:24
  TRACK 43 AUDIO
    TITLE "4:cjc137_2507"
    INDEX 01 00:32:33
  TRACK 44 AUDIO
    TITLE "0:"
    INDEX 01 00:33:38
  TRACK 45 AUDIO
    TITLE "6:cjc137_2508"
    INDEX 01 00:33:44
  TRACK 46 AUDIO
    TITLE "0:"
    INDEX 01 00:34:65
  TRACK 47 AUDIO
    TITLE "5:cjc137_2509"
    INDEX 01 00:34:73
  TRACK 48 AUDIO
    TITLE "0:"
    INDEX 01 00:36:01
  TRACK 49 AUDIO
    TITLE "4:cjc137_2510"
    INDEX 01 00:37:08
  TRACK 50 AUDIO
    TITLE "0:"
    INDEX 01 00:38:14
  TRACK 51 AUDIO
    TITLE "6:cjc137_2511"
    INDEX 01 00:38:28
  TRACK 52 AUDIO
    TITLE "0:"
    INDEX 01 00:39:21
  TRACK 53 AUDIO
    TITLE "5:cjc137_2512"
    INDEX 01 00:39:29
  TRACK 54 AUDIO
    TITLE "0:"
    INDEX 01 00:40:36
  TRACK 55 AUDIO
    TITLE "4:cjc137_2513"
    INDEX 01 00:41:47
  TRACK 56 AUDIO
    TITLE "0:"
    INDEX 01 00:42:55
  TRACK 57 AUDIO
    TITLE "6:cjc137_2514"
    INDEX 01 00:42:61
  TRACK 58 AUDIO
    TITLE "0:"
    INDEX 01 00:44:22
  TRACK 59 AUDIO
    TITLE "5:cjc137_2515"
    INDEX 01 00:44:32
  TRACK 60 AUDIO
    TITLE "0:"
    INDEX 01 00:45:39
  TRACK 61 AUDIO
    TITLE "4:cjc137_2516"
    INDEX 01 00:46:47
  TRACK 62 AUDIO
    TITLE "0:"
    INDEX 01 00:48:02
  TRACK 63 AUDIO
    TITLE "6:cjc137_2517"
    INDEX 01 00:48:10
  TRACK 64 AUDIO
    TITLE "0:"
    INDEX 01 00:49:27
  TRACK 65 AUDIO
    TITLE "5:cjc137_2518"
    INDEX 01 00:49:33
  TRACK 66 AUDIO
    TITLE "0:"
    INDEX 01 00:50:64
  TRACK 67 AUDIO
    TITLE "4:cjc137_2519"
    INDEX 01 00:51:71
  TRACK 68 AUDIO
    TITLE "0:"
    INDEX 01 00:53:06
  TRACK 69 AUDIO
    TITLE "6:cjc137_2520"
    INDEX 01 00:53:13
  TRACK 70 AUDIO
    TITLE "0:"
    INDEX 01 00:54:40
  TRACK 71 AUDIO
    TITLE "5:cjc137_2521"
    INDEX 01 00:54:48
  TRACK 72 AUDIO
    TITLE "0:"
    INDEX 01 00:55:59
  TRACK 73 AUDIO
    TITLE "4:cjc137_2522"
    INDEX 01 00:56:65
  TRACK 74 AUDIO
    TITLE "0:"
    INDEX 01 00:58:11
  TRACK 75 AUDIO
    TITLE "6:cjc137_2523"
    INDEX 01 00:58:15
  TRACK 76 AUDIO
    TITLE "0:"
    INDEX 01 00:59:22
  TRACK 77 AUDIO
    TITLE "5:cjc137_2524"
    INDEX 01 00:59:28
  TRACK 78 AUDIO
    TITLE "0:"
    INDEX 01 01:00:47
  TRACK 79 AUDIO
    TITLE "4:cjc137_2525"
    INDEX 01 01:01:54
  TRACK 80 AUDIO
    TITLE "0:"
    INDEX 01 01:02:48
  TRACK 81 AUDIO
    TITLE "6:cjc137_2526"
    INDEX 01 01:02:57
  TRACK 82 AUDIO
    TITLE "0:"
    INDEX 01 01:03:71
  TRACK 83 AUDIO
    TITLE "5:cjc137_2527"
    INDEX 01 01:04:05
  TRACK 84 AUDIO
    TITLE "0:"
    INDEX 01 01:05:01
